<svg width="599" height="109" viewBox="0 0 599 109" fill="none" xmlns="http://www.w3.org/2000/svg">
<g clip-path="url(#clip0_10_125)">
<rect width="29" height="29" rx="3" fill="white"/>
<rect x="40" width="58" height="29" rx="3" fill="white"/>
<rect y="40" width="87" height="29" rx="3" fill="white"/>
<rect y="80" width="58" height="29" rx="3" fill="white"/>
<rect x="69" y="80" width="29" height="29" rx="3" fill="white"/>
<path d="M569.121 96.942C562.341 96.942 556.089 95.473 550.363 92.535C544.713 89.5217 540.231 84.4367 536.917 77.28L549.233 70.5C551.418 74.4173 554.055 77.4683 557.143 79.653C560.232 81.8377 564.413 82.93 569.686 82.93C574.884 82.93 578.35 82.0637 580.083 80.331C581.815 78.523 582.682 76.15 582.682 73.212C582.682 71.3287 582.23 69.709 581.326 68.353C580.497 66.997 578.614 65.7163 575.676 64.511C572.813 63.2303 568.368 61.8743 562.341 60.443C555.034 58.7103 549.648 55.923 546.182 52.081C542.717 48.239 540.984 43.4553 540.984 37.73C540.984 32.984 542.115 28.8407 544.375 25.3C546.635 21.7593 549.799 19.0097 553.867 17.051C558.01 15.017 562.869 14 568.444 14C573.566 14 578.086 14.791 582.004 16.373C585.921 17.955 589.236 20.0267 591.948 22.588C594.735 25.1493 596.919 27.9367 598.501 30.95L586.863 39.651C585.733 37.843 584.339 36.0727 582.682 34.34C581.1 32.532 579.141 31.0253 576.806 29.82C574.47 28.6147 571.608 28.012 568.217 28.012C564.677 28.012 561.777 28.7653 559.517 30.272C557.332 31.7033 556.24 33.9633 556.24 37.052C556.24 38.2573 556.541 39.5003 557.143 40.781C557.821 41.9863 559.328 43.1917 561.664 44.397C564.074 45.6023 567.879 46.8453 573.077 48.126C581.891 50.2353 588.256 53.3993 592.173 57.618C596.166 61.7613 598.163 66.884 598.163 72.986C598.163 80.7453 595.526 86.6967 590.253 90.84C585.055 94.908 578.011 96.942 569.121 96.942Z" fill="white"/>
<path d="M495.568 95.247V61.799L468.9 16.147H485.963L503.026 45.866L519.976 16.147H537.152L510.371 61.799V95.247H495.568Z" fill="white"/>
<path d="M436.311 96.942C429.531 96.942 423.279 95.473 417.553 92.535C411.903 89.5217 407.421 84.4367 404.106 77.28L416.423 70.5C418.608 74.4173 421.245 77.4683 424.333 79.653C427.422 81.8377 431.603 82.93 436.876 82.93C442.074 82.93 445.54 82.0637 447.272 80.331C449.005 78.523 449.871 76.15 449.871 73.212C449.871 71.3287 449.419 69.709 448.515 68.353C447.687 66.997 445.803 65.7163 442.865 64.511C440.003 63.2303 435.558 61.8743 429.531 60.443C422.224 58.7103 416.838 55.923 413.372 52.081C409.907 48.239 408.174 43.4553 408.174 37.73C408.174 32.984 409.304 28.8407 411.564 25.3C413.824 21.7593 416.988 19.0097 421.056 17.051C425.2 15.017 430.059 14 435.633 14C440.756 14 445.276 14.791 449.193 16.373C453.111 17.955 456.425 20.0267 459.137 22.588C461.925 25.1493 464.109 27.9367 465.691 30.95L454.052 39.651C452.922 37.843 451.529 36.0727 449.871 34.34C448.289 32.532 446.331 31.0253 443.995 29.82C441.66 28.6147 438.797 28.012 435.407 28.012C431.867 28.012 428.966 28.7653 426.706 30.272C424.522 31.7033 423.429 33.9633 423.429 37.052C423.429 38.2573 423.731 39.5003 424.333 40.781C425.011 41.9863 426.518 43.1917 428.853 44.397C431.264 45.6023 435.068 46.8453 440.266 48.126C449.08 50.2353 455.446 53.3993 459.363 57.618C463.356 61.7613 465.352 66.884 465.352 72.986C465.352 80.7453 462.716 86.6967 457.442 90.84C452.244 94.908 445.201 96.942 436.311 96.942Z" fill="white"/>
<path d="M341.63 95.247V16.147H395.531V29.707H356.32V48.126H392.141V61.686H356.32V81.687H396.774V95.247H341.63Z" fill="white"/>
<path d="M278.094 95.247V16.147H292.784V81.687H333.351V95.247H278.094Z" fill="white"/>
<path d="M236.75 97.168C229.593 97.168 223.19 95.473 217.54 92.083C211.89 88.693 207.445 83.9093 204.206 77.732C201.042 71.4793 199.46 64.1343 199.46 55.697C199.46 47.1843 201.042 39.8393 204.206 33.662C207.445 27.4093 211.89 22.588 217.54 19.198C223.19 15.7327 229.593 14 236.75 14C243.454 14 249.481 15.5067 254.83 18.52C260.254 21.5333 264.585 25.752 267.825 31.176L254.717 38.747C252.833 35.4323 250.347 32.871 247.259 31.063C244.245 29.255 240.742 28.351 236.75 28.351C232.305 28.351 228.425 29.5187 225.111 31.854C221.871 34.114 219.348 37.278 217.54 41.346C215.732 45.414 214.828 50.1977 214.828 55.697C214.828 61.121 215.732 65.867 217.54 69.935C219.348 74.003 221.871 77.2047 225.111 79.54C228.425 81.8 232.305 82.93 236.75 82.93C240.742 82.93 244.245 82.026 247.259 80.218C250.347 78.3347 252.833 75.7733 254.717 72.534L267.825 80.105C264.585 85.4537 260.254 89.6347 254.83 92.648C249.481 95.6613 243.454 97.168 236.75 97.168Z" fill="white"/>
<path d="M138 95.247V16.147H191.901V29.707H152.69V48.126H188.511V61.686H152.69V81.687H193.144V95.247H138Z" fill="white"/>
</g>
<defs>
<clipPath id="clip0_10_125">
<rect width="599" height="109" fill="white"/>
</clipPath>
</defs>
</svg>
